<?xml version="1.0" encoding="UTF-8"?>
<svg id="Camada_3" data-name="Camada 3" xmlns="http://www.w3.org/2000/svg" xmlns:xlink="http://www.w3.org/1999/xlink" viewBox="0 0 16 16">
  <defs>
    <style>
      .cls-1 {
        stroke: #fff;
        stroke-miterlimit: 10;
      }

      .cls-1, .cls-2, .cls-3 {
        fill: none;
      }

      .cls-3 {
        clip-path: url(#clippath);
      }

      .cls-4 {
        fill: url(#Gradiente_sem_nome_306);
      }
    </style>
    <linearGradient id="Gradiente_sem_nome_306" data-name="Gradiente sem nome 306" x1=".38" y1="5.19" x2="14.24" y2="13.19" gradientUnits="userSpaceOnUse">
      <stop offset="0" stop-color="#2baaff"/>
      <stop offset="1" stop-color="#a044b8"/>
    </linearGradient>
    <clipPath id="clippath">
      <path class="cls-2" d="m8,0C3.58,0,0,3.58,0,8c0,2.16.86,4.12,2.25,5.56L.2,15.09c-.39.29-.18.91.3.91h7.5c4.42,0,8-3.58,8-8S12.42,0,8,0Z"/>
    </clipPath>
  </defs>
  <path class="cls-4" d="m8,0C3.58,0,0,3.58,0,8c0,2.16.86,4.12,2.25,5.56L.2,15.09c-.39.29-.18.91.3.91h7.5c4.42,0,8-3.58,8-8S12.42,0,8,0Z"/>
  <g class="cls-3">
    <polyline class="cls-1" points="0 8.5 4.5 8.5 6.5 4.5 8.5 8.5 9.5 10.5 9.5 10.5 11.5 8.5 16 8.5"/>
  </g>
</svg>